<?xml version="1.0" encoding="UTF-8"?>
<svg width="26px" height="25px" viewBox="0 0 26 25" version="1.1" xmlns="http://www.w3.org/2000/svg" xmlns:xlink="http://www.w3.org/1999/xlink">
    <!-- Generator: Sketch 42 (36781) - http://www.bohemiancoding.com/sketch -->
    <title>github-icon_Color</title>
    <desc>Created with Sketch.</desc>
    <defs></defs>
    <g id="Page-1" stroke="none" stroke-width="1" fill="none" fill-rule="evenodd">
        <g id="Desktop-Portrait" transform="translate(-181.000000, -1967.000000)" fill="#151513">
            <g id="Group-5" transform="translate(45.000000, 1428.000000)">
                <g id="person-1" transform="translate(0.000000, 7.000000)">
                    <g id="Group-4" transform="translate(10.000000, 532.000000)">
                        <g id="github-icon" transform="translate(126.061017, 0.000000)">
                            <path d="M12.7119697,0 C5.69226289,0 0,5.73799352 0,12.8164652 C0,18.4791152 3.64236622,23.2832734 8.69322069,24.9779722 C9.32852447,25.0966118 9.56176389,24.699944 9.56176389,24.3614287 C9.56176389,24.0558099 9.54997562,23.0462066 9.54450249,21.9752672 C6.00802024,22.7505628 5.26178038,20.4630907 5.26178038,20.4630907 C4.68352343,18.9816884 3.85034505,18.5877796 3.85034505,18.5877796 C2.69698873,17.7923217 3.93728357,17.8086639 3.93728357,17.8086639 C5.21378526,17.8990761 5.8859274,19.1294041 5.8859274,19.1294041 C7.01970677,21.0887604 8.85973006,20.5223044 9.58512993,20.1948253 C9.69922359,19.366471 10.0286638,18.8010761 10.3922057,18.4810253 C7.56870354,18.156942 4.6005845,17.0579876 4.6005845,12.1470751 C4.6005845,10.7478077 5.09716555,9.60449618 5.91034596,8.70695311 C5.7783594,8.38414322 5.34324577,7.08059402 6.03349133,5.31522081 C6.03349133,5.31522081 7.10096166,4.97076292 9.53018816,6.6289573 C10.5441902,6.34498647 11.6316585,6.20257659 12.7119697,6.19769518 C13.7922808,6.20257659 14.8805911,6.34498647 15.8964877,6.6289573 C18.3227672,4.97076292 19.388764,5.31522081 19.388764,5.31522081 C20.0806935,7.08059402 19.6453694,8.38414322 19.5133828,8.70695311 C20.3284578,9.60449618 20.8216708,10.7478077 20.8216708,12.1470751 C20.8216708,17.0696606 17.8478681,18.1535462 15.0172088,18.470838 C15.4731624,18.8685669 15.8794368,19.6485317 15.8794368,20.8442653 C15.8794368,22.5591265 15.8647015,23.9392927 15.8647015,24.3614287 C15.8647015,24.7024908 16.0935203,25.1021299 16.7378758,24.9762744 C21.7859937,23.2796654 25.4237288,18.4772051 25.4237288,12.8164652 C25.4237288,5.73799352 19.7323079,0 12.7119697,0" id="Fill-4"></path>
                            <path d="M4.91331598,18.3524333 C4.88034078,18.4268237 4.76331598,18.4491408 4.65670441,18.3980594 C4.54810937,18.3492097 4.48711764,18.2477908 4.52232425,18.1731524 C4.55455565,18.0965303 4.67182838,18.075205 4.78017549,18.1265344 C4.88901846,18.1753841 4.95100194,18.2777949 4.91331598,18.3524333" id="Fill-5"></path>
                            <path d="M5.42613473,18.950306 C5.35472977,19.0165135 5.215143,18.9857655 5.12043225,18.881123 C5.02249837,18.7767284 5.00415126,18.6371224 5.07654795,18.5699231 C5.15018432,18.5037156 5.28555622,18.5347116 5.38373804,18.6391062 C5.48167192,18.7447405 5.50076283,18.8833547 5.42613473,18.950306" id="Fill-6"></path>
                            <path d="M5.92784524,19.659967 C5.8361097,19.7192144 5.6861097,19.6636555 5.59338243,19.5398584 C5.50164689,19.4160614 5.50164689,19.2675971 5.5953659,19.2081192 C5.68834111,19.1486412 5.8361097,19.2021253 5.93007664,19.3250002 C6.02156425,19.4508721 6.02156425,19.5993364 5.92784524,19.659967" id="Fill-7"></path>
                            <path d="M6.57467726,20.3554205 C6.50146818,20.4378907 6.34553949,20.415748 6.23141296,20.303227 C6.11463232,20.1931914 6.08211952,20.0370628 6.15554977,19.9545926 C6.22964355,19.8718964 6.38645695,19.8951688 6.50146818,20.0067861 C6.61736412,20.1165957 6.65275219,20.273854 6.57467726,20.3554205" id="Fill-8"></path>
                            <path d="M7.49726853,20.7838011 C7.46659196,20.90109 7.32392492,20.9544031 7.18020731,20.9045615 C7.03669982,20.8532322 6.9427791,20.7158579 6.97177476,20.5973291 C7.00161087,20.4792964 7.14490825,20.4237515 7.28967643,20.4770646 C7.43297381,20.5281461 7.52710464,20.6645285 7.49726853,20.7838011" id="Fill-9"></path>
                            <path d="M8.53564925,20.8433201 C8.53922118,20.9668082 8.41735537,21.069219 8.26649391,21.0714507 C8.11479199,21.0754182 7.99208573,20.9754871 7.99040482,20.8539827 C7.99040482,20.7292548 8.10953915,20.6278359 8.26124107,20.6248603 C8.41210254,20.6213887 8.53564925,20.7205759 8.53564925,20.8433201" id="Fill-10"></path>
                            <path d="M9.50196106,20.6715583 C9.52003082,20.7920708 9.4151842,20.9158069 9.2653733,20.9487866 C9.11808377,20.9805265 8.98172013,20.9061361 8.96302003,20.7866155 C8.94474016,20.6631274 9.0514778,20.5393914 9.19855722,20.5074035 C9.34857823,20.4766555 9.48284073,20.5490621 9.50196106,20.6715583" id="Fill-11"></path>
                        </g>
                    </g>
                </g>
            </g>
        </g>
    </g>
</svg>