<?xml version="1.0" encoding="UTF-8"?>
<svg width="25px" height="25px" viewBox="0 0 25 25" version="1.1" xmlns="http://www.w3.org/2000/svg" xmlns:xlink="http://www.w3.org/1999/xlink">
    <!-- Generator: Sketch 42 (36781) - http://www.bohemiancoding.com/sketch -->
    <title>snapchat-icon_Color</title>
    <desc>Created with Sketch.</desc>
    <defs></defs>
    <g id="Page-1" stroke="none" stroke-width="1" fill="none" fill-rule="evenodd">
        <g id="Desktop-Portrait" transform="translate(-213.000000, -1967.000000)">
            <g id="Group-5" transform="translate(45.000000, 1428.000000)">
                <g id="person-1" transform="translate(0.000000, 7.000000)">
                    <g id="Group-4" transform="translate(10.000000, 532.000000)">
                        <g id="snapchat-icon" transform="translate(158.000000, 0.000000)">
                            <path d="M0,12.5 C0,5.59644029 5.51265012,0 12.3128494,0 C19.1130487,0 24.6256989,5.59644029 24.6256989,12.5 C24.6256989,19.4035597 19.1130487,25 12.3128494,25 C5.51265012,25 0,19.4035597 0,12.5 Z" id="back" fill="#FFE400"></path>
                            <path d="M12.4211803,6.25 L12.4206025,6.25 C12.4092847,6.25 12.3986466,6.25 12.3885183,6.25013781 C12.3077639,6.2509647 12.1750086,6.25227394 12.163079,6.25241175 C11.8719417,6.25241175 11.2894294,6.29410058 10.6637188,6.57407037 C10.305966,6.73403835 9.98417205,6.95033792 9.70730959,7.21697418 C9.37722264,7.53467064 9.10831326,7.92637339 8.90819465,8.38136737 C8.61512013,9.04756179 8.68469262,10.1696804 8.74056812,11.071434 L8.74077205,11.0728466 C8.74675386,11.16942 8.75304155,11.2702656 8.75878544,11.3685272 C8.71579121,11.3885447 8.64608278,11.4096648 8.54333846,11.4096648 C8.37802308,11.4096648 8.18143918,11.3560895 7.95919468,11.2505237 C7.89380266,11.2196533 7.81916603,11.2040458 7.73681423,11.2040458 C7.60450076,11.2040458 7.46501591,11.2435296 7.34402029,11.315641 C7.19179011,11.4062539 7.09343019,11.5343178 7.06671598,11.676301 C7.04911044,11.7702215 7.04996013,11.9558574 7.25337553,12.1441117 C7.3652625,12.2477481 7.52962622,12.3433223 7.74177642,12.4283193 C7.797448,12.4505419 7.86351977,12.4717653 7.9335001,12.4942635 C8.17634105,12.5725076 8.54388226,12.6907178 8.63972711,12.9193862 C8.68829529,13.0353225 8.66739296,13.187883 8.57776783,13.3722785 C8.57542269,13.3773087 8.57307755,13.3822356 8.57093633,13.3874036 C8.54853855,13.4404277 8.33958318,13.9202282 7.91096637,14.426248 C7.66741169,14.7140043 7.39914807,14.9544903 7.11406062,15.1412287 C6.76609623,15.369208 6.38958231,15.5182542 5.99508898,15.5841294 C5.8401738,15.6099007 5.72954437,15.7498167 5.7381772,15.90882 C5.74082823,15.9546432 5.75143234,16.0003287 5.7698196,16.0445326 C5.76995555,16.0448083 5.77012549,16.0450839 5.77026144,16.0453251 C5.83290046,16.1938544 5.9781292,16.3200235 6.21424061,16.4313085 C6.5027608,16.567159 6.93426656,16.6814415 7.49665831,16.7708486 C7.52507189,16.8256297 7.55457307,16.9633062 7.57499958,17.0575712 C7.59637774,17.1577623 7.61867356,17.2607785 7.65045191,17.370203 C7.68474533,17.4887578 7.77369071,17.6304309 8.00218891,17.6304309 C8.08878915,17.6304309 8.18837263,17.6106546 8.30369234,17.5879841 C8.47257641,17.5543919 8.70352171,17.5085686 8.99177,17.5085686 C9.15157939,17.5085686 9.31720065,17.5228324 9.48390952,17.5509121 C9.80526167,17.605142 10.0822941,17.8035257 10.4028305,18.0332622 C10.8719945,18.3694602 11.4030497,18.75 12.2144341,18.75 C12.23656,18.75 12.2587539,18.7492765 12.2806758,18.7477261 C12.307492,18.7490008 12.3407318,18.75 12.375807,18.75 C13.1874293,18.75 13.7183486,18.3693224 14.1870027,18.0334 L14.1877505,18.0327109 C14.5083549,17.8032501 14.7850814,17.605142 15.1063316,17.5509121 C15.2729725,17.5228668 15.4385597,17.5085686 15.5984371,17.5085686 C15.8738041,17.5085686 16.0918342,17.5441592 16.2865148,17.5826438 C16.4135602,17.6080016 16.512294,17.6201982 16.5880522,17.6201982 L16.5954615,17.620336 L16.6031427,17.620336 C16.7702594,17.620336 16.8930563,17.5273458 16.9399251,17.3646215 C16.9710577,17.2575054 16.9932856,17.1569009 17.0152075,17.0550217 C17.0343085,16.9666827 17.0648293,16.8250785 17.0932429,16.7697116 C17.6560085,16.6801323 18.0873443,16.5660909 18.3758985,16.4302749 C18.6114661,16.3195067 18.7565249,16.1934755 18.8195378,16.0455662 C18.8384349,16.0012245 18.8494808,15.9552634 18.8519619,15.9084754 C18.8608327,15.7497478 18.7500333,15.6095562 18.5950162,15.5837849 C16.8417691,15.2908606 16.0519328,13.464683 16.0192708,13.3870936 C16.0171636,13.3819944 16.0147844,13.3769297 16.0123033,13.3720029 C15.9226782,13.1875384 15.9019798,13.0351502 15.950582,12.9190072 C16.0462229,12.6905455 16.4135262,12.5723353 16.6565371,12.4941257 C16.7268913,12.4716619 16.793201,12.4503007 16.8484307,12.4281815 C17.087669,12.3324006 17.2586603,12.2284886 17.3714649,12.1104851 C17.5061915,11.9698111 17.5324299,11.8350287 17.5307985,11.7468275 C17.526686,11.533422 17.365755,11.3437895 17.1097609,11.2509371 C17.0232966,11.214692 16.9246987,11.1955702 16.8242995,11.1955702 C16.7559506,11.1955702 16.6547357,11.2050794 16.5589249,11.2504203 C16.3538101,11.3477172 16.1700735,11.4009136 16.0123373,11.4084934 C15.9284561,11.4041867 15.8696237,11.385754 15.8315236,11.3681482 C15.8363159,11.2849084 15.8416179,11.1993946 15.8470899,11.1102287 L15.8493671,11.0720542 C15.9055485,10.1697149 15.9753589,9.0467349 15.6821484,8.38005813 C15.4811801,7.92344483 15.2113191,7.53074293 14.8799066,7.2123574 C14.6019566,6.94554887 14.279075,6.72928375 13.9200306,6.56941914 C13.2952038,6.29151656 12.7127254,6.25 12.4211803,6.25" id="Snapchat" fill="#FFFFFF"></path>
                        </g>
                    </g>
                </g>
            </g>
        </g>
    </g>
</svg>