<?xml version="1.0" encoding="UTF-8"?>
<svg width="192px" height="239px" viewBox="0 0 192 239" version="1.1" xmlns="http://www.w3.org/2000/svg" xmlns:xlink="http://www.w3.org/1999/xlink">
    <!-- Generator: Sketch 42 (36781) - http://www.bohemiancoding.com/sketch -->
    <title>Cole</title>
    <desc>Created with Sketch.</desc>
    <defs></defs>
    <g id="Page-1" stroke="none" stroke-width="1" fill="none" fill-rule="evenodd">
        <g id="Desktop-Portrait" transform="translate(-383.000000, -1428.000000)" fill-rule="nonzero">
            <g id="Group-5" transform="translate(45.000000, 1428.000000)">
                <g id="person-2" transform="translate(329.000000, 0.000000)">
                    <g id="Cole" transform="translate(9.000000, 0.000000)">
                        <g id="Group_1_">
                            <g id="Body_1_" transform="translate(0.000000, 131.429596)">
                                <path d="M182.529548,39.613991 C172.363345,20.8251121 133.824195,0 98.889426,0 L96.0244053,0 L96.0244053,107.087354 C115.34019,107.087354 150.27496,98.7573094 173.472386,88.2984753 C202.584693,75.1555157 189.18379,51.8313901 182.529548,39.613991 Z" id="Shape" fill="#1F1F21"></path>
                                <path d="M18.5764249,88.2984753 C41.773851,98.7573094 76.7086202,107.087354 96.0244053,107.087354 L96.0244053,0 L93.1593845,0 C58.2246153,0 19.6854652,20.8251121 9.51926251,39.613991 C2.86502075,51.8313901 -10.5358828,75.1555157 18.5764249,88.2984753 Z" id="Shape" fill="#3B3B3D"></path>
                            </g>
                            <g id="Neck_1_" transform="translate(61.921416, 114.769507)">
                                <path d="M4.62100122,0.647892377 L64.416757,0.647892377 L68.1135579,36.9298655 C68.1135579,36.9298655 44.9161318,56.2740807 34.102989,56.2740807 C22.1808058,56.2740807 0.0924200243,36.9298655 0.0924200243,36.9298655 L4.62100122,0.647892377 Z" id="path-3_2_" fill="#ECBE9D"></path>
                                <g id="Group" transform="translate(12.014603, 1.851121)" fill="#D2A88A">
                                    <path d="M27.0790671,31.006278 C35.3968693,31.006278 40.6648107,42.2981166 44.7312918,43.6864574 C49.1674529,40.9097758 53.233934,37.6703139 56.0989548,35.0787444 C55.7292747,29.3402691 53.5111941,10.273722 53.4187741,7.68215247 C52.6794139,-2.77668161 42.0511111,1.66600897 27.0790671,1.66600897 C12.1070232,1.66600897 0,0.925560538 0,11.1067265 C0,16.2898655 7.30118192,31.006278 27.0790671,31.006278 Z" id="Shape"></path>
                                </g>
                            </g>
                            <path d="M47.9659926,81.2642152 C48.2432527,73.8597309 47.6887326,68.5840359 51.7552136,68.769148 C55.8216947,68.9542601 58.9639755,75.0629596 58.6867155,82.4674439 C58.4094554,89.8719283 54.8974945,95.6104036 50.8310134,95.6104036 C43.8995116,95.6104036 47.7811526,88.6686996 47.9659926,81.2642152 Z" id="Oval-2_3_" fill="#DDB190"></path>
                            <path d="M141.679897,95.6104036 C137.613416,95.6104036 134.101455,89.8719283 133.824195,82.4674439 C133.546935,75.0629596 136.689216,68.9542601 140.755697,68.769148 C144.822178,68.5840359 144.267658,73.8597309 144.544918,81.2642152 C144.822178,88.6686996 148.703819,95.6104036 141.679897,95.6104036 Z" id="Oval-2_4_" fill="#DDB190"></path>
                            <g id="Face_1_" transform="translate(50.831013, 21.287892)">
                                <path d="M3.14228083,39.3363229 C1.38630037,45.8152466 0.369680097,52.8495067 0.369680097,60.161435 C0.369680097,93.3890583 20.4248254,120.32287 45.1933919,120.32287 L45.1933919,0 C25.8776068,0 9.42684248,16.3824215 3.14228083,39.3363229 Z" id="Shape" fill="#ECBE9D"></path>
                                <path d="M90.0171037,60.161435 C90.0171037,26.9338117 69.9619584,0 45.1933919,0 L45.1933919,120.32287 C69.9619584,120.32287 90.0171037,93.3890583 90.0171037,60.161435 Z" id="Shape" fill="#DDB190"></path>
                            </g>
                            <path d="M95.8395652,32.672287 C113.39937,32.672287 115.34019,26.5635874 121.717172,32.9499552 C129.018354,40.2618834 132.992415,51.1834978 132.992415,58.2177578 C132.992415,66.5478027 138.814877,77.6545291 139.646657,68.6765919 C144.637338,50.9058296 146.762999,32.8573991 136.874056,25.6380269 C134.563555,23.9720179 129.203194,17.4005381 128.648674,16.2898655 C126.800273,12.5876233 131.513695,11.0141704 121.070232,4.62780269 C107.576908,-3.70224215 75.3223198,2.31390135 62.8456166,14.8089686 C55.8216947,21.8432287 50.5537533,32.0243946 48.5205128,43.038565 C46.3948522,54.7006278 51.7552136,69.6947085 51.7552136,69.6947085 C55.4520146,77.7470852 58.6867155,58.7730942 60.9972161,44.79713 C62.8456166,50.4430493 65.2485372,54.8857399 71.1634187,54.1452915 C64.2319169,46.2780269 67.3741977,35.3564126 70.5164786,33.0425112 C77.6328204,27.7668161 78.2797606,32.672287 95.8395652,32.672287 Z" id="Shape" fill="#877663"></path>
                            <path d="M116.356811,30.0807175 C116.356811,30.0807175 129.018354,17.4930942 128.094154,12.9578475 C125.691233,1.85112108 124.489773,17.8633184 105.820928,14.1610762 C78.3721806,8.70026906 72.3648791,27.2114798 68.5756581,34.8936323 C64.7864371,42.5757848 96.0244053,38.4107623 96.0244053,38.4107623 L116.356811,30.0807175 Z" id="Shape" fill="#66594D"></path>
                        </g>
                        <g id="Glasses" transform="translate(55.452015, 63.863677)">
                            <path d="M47.0417924,8.14493274 C47.7811526,4.99802691 55.0823345,3.23946188 60.5351159,2.49901345 C65.8030573,1.75856502 72.4572991,2.22134529 75.0450598,3.51713004 C77.6328204,4.8129148 77.2631403,23.4166816 73.1966593,25.1752466 C68.7604981,27.1189238 54.1581343,27.9519283 52.3097338,26.3784753 C51.4779536,25.6380269 49.6295531,23.0464574 48.4280928,19.8995516 C47.0417924,16.1047534 46.3024322,11.4769507 47.0417924,8.14493274 Z" id="Lens_1_" fill="#FFFFFF" opacity="0.15"></path>
                            <path d="M32.7166886,19.8995516 C31.5152283,23.0464574 29.6668278,25.6380269 28.8350476,26.3784753 C26.9866471,27.9519283 12.3842833,27.1189238 7.94812209,25.1752466 C3.88164102,23.4166816 3.51196092,4.8129148 6.09972161,3.51713004 C8.68748229,2.22134529 15.341724,1.75856502 20.6096654,2.49901345 C26.0624469,3.23946188 33.3636288,4.99802691 34.102989,8.14493274 C34.8423492,11.4769507 34.102989,16.1047534 32.7166886,19.8995516 Z" id="Lens" fill="#FFFFFF" opacity="0.15"></path>
                            <path d="M40.4799707,4.90547085 C45.563072,4.90547085 44.2691917,6.10869955 46.4872722,5.27569507 C49.352293,4.07246637 53.049094,0.462780269 68.1135579,0.555336323 C70.8861587,0.555336323 77.3555604,1.11067265 77.3555604,1.11067265 C77.3555604,1.11067265 79.758481,1.01811659 80.6826812,1.29578475 C81.0523613,1.85112108 80.9599413,3.70224215 80.6826812,4.90547085 C79.9433211,5.83103139 79.666061,4.90547085 78.4646007,6.84914798 C78.4646007,6.84914798 78.1873406,22.306009 74.5829596,25.9156951 C73.0118192,27.489148 53.8808742,29.8956054 51.0158534,26.9338117 C50.0916532,26.0082511 48.5205128,23.0464574 47.5038925,20.5474439 C45.2858119,14.9940807 46.0251721,7.58959641 40.5723907,7.58959641 L40.5723907,4.90547085 L40.4799707,4.90547085 L40.4799707,4.90547085 Z M48.7053528,19.8995516 C49.9068131,23.0464574 51.4779536,24.7124664 52.3097338,25.4529148 C54.1581343,27.1189238 68.7604981,26.1933632 73.1966593,24.2496861 C77.2631403,22.4911211 77.6328204,4.8129148 75.0450598,3.51713004 C72.4572991,2.22134529 65.8030573,1.75856502 60.5351159,2.49901345 C55.0823345,3.23946188 47.9659926,4.90547085 47.2266324,8.14493274 C46.4872722,11.4769507 47.2266324,16.1047534 48.7053528,19.8995516 Z" id="Shape" fill="#2D2017"></path>
                            <path d="M40.7572307,7.58959641 C35.2120293,7.58959641 35.9513895,14.9015247 33.8257289,20.5474439 C32.8091086,23.0464574 31.2379682,26.0082511 30.313768,26.9338117 C27.4487472,29.8956054 8.31780219,27.489148 6.74666178,25.9156951 C3.23470085,22.398565 2.86502075,6.84914798 2.86502075,6.84914798 C1.66356044,4.90547085 1.38630037,5.92358744 0.64694017,4.90547085 C0.369680097,3.70224215 0.277260073,1.85112108 0.64694017,1.29578475 C1.57114041,1.01811659 3.97406105,1.11067265 3.97406105,1.11067265 C3.97406105,1.11067265 10.4434628,0.555336323 13.2160635,0.555336323 C28.2805274,0.462780269 31.9773284,4.07246637 34.8423492,5.27569507 C36.9680097,6.20125561 35.6741294,4.90547085 40.8496508,4.90547085 L40.7572307,7.58959641 L40.7572307,7.58959641 Z M33.9181489,8.23748879 C33.1787887,5.09058296 26.1548669,3.33201794 20.6096654,2.59156951 C15.341724,1.85112108 8.68748229,2.31390135 6.09972161,3.6096861 C3.51196092,4.90547085 3.88164102,22.5836771 7.94812209,24.3422422 C12.3842833,26.2859193 26.9866471,27.1189238 28.8350476,25.5454709 C29.6668278,24.8050224 31.2379682,23.1390135 32.4394285,19.9921076 C33.9181489,16.1973094 34.6575091,11.5695067 33.9181489,8.23748879 Z" id="Shape" fill="#2D2017"></path>
                        </g>
                        <g id="Chemise_2_" transform="translate(52.679414, 126.801794)">
                            <g id="Left">
                                <path d="M12.2918632,2.96179372 C12.2918632,2.96179372 8.22538217,4.99802691 8.87232234,9.90349776 C9.51926251,14.8089686 10.9979829,15.6419731 10.9979829,15.6419731 L12.2918632,2.96179372 Z" id="Shape" fill="#969087"></path>
                                <path d="M43.8995116,47.2035874 L44.0843516,111.715157 C44.0843516,111.715157 40.9420708,111.807713 34.010569,111.159821 C28.2805274,101.533991 10.8131428,72.1011659 3.97406105,28.2295964 C3.97406105,22.6762332 6.28456166,21.4730045 8.68748229,21.7506726 C11.460083,22.0283408 14.3251038,24.15713 14.3251038,24.15713 C14.3251038,24.15713 33.1787887,35.9117489 38.07705,38.0405381 C42.9753113,40.0767713 43.8995116,47.2035874 43.8995116,47.2035874 Z" id="Shape" fill="#CEC9C4"></path>
                                <path d="M44.0843516,45.4450224 C44.0843516,34.8010762 24.0292063,30.7286099 15.064464,21.0102242 C2.86502075,7.77470852 12.2918632,2.96179372 12.2918632,2.96179372 L12.5691233,0.647892377 C12.5691233,0.647892377 5.45278144,0.925560538 3.789221,14.8089686 C2.12566056,28.6923767 -0.277260073,37.6703139 0.369680097,40.7246637 C1.01662027,43.7790135 4.25132112,27.9519283 13.2160635,27.489148 C13.5857436,33.5052915 16.1735043,35.4489686 21.0717655,38.5958744 C25.9700268,41.6502242 36.7831697,38.1330942 41.773851,46.0003587 C43.8995116,49.2398206 43.8070915,52.6643946 43.9919316,51.9239462 C44.3616117,50.2579372 44.0843516,45.4450224 44.0843516,45.4450224 Z" id="Shape" fill="#EAE8E5"></path>
                            </g>
                            <g id="Righty" transform="translate(41.589011, 0.000000)">
                                <path d="M33.5484688,2.96179372 C33.5484688,2.96179372 37.6149499,4.99802691 36.9680097,9.90349776 C36.3210696,14.8089686 34.8423492,15.6419731 34.8423492,15.6419731 L33.5484688,2.96179372 Z" id="Shape" fill="#969087"></path>
                                <path d="M1.66356044,47.2035874 L1.75598046,111.715157 C1.75598046,111.715157 4.89826129,111.807713 11.8297631,111.159821 C17.5598046,101.533991 35.0271892,72.1011659 41.866271,28.2295964 C41.866271,22.6762332 39.5557704,21.4730045 37.1528498,21.7506726 C34.3802491,22.0283408 31.5152283,24.15713 31.5152283,24.15713 C31.5152283,24.15713 12.6615433,35.9117489 7.85570207,38.0405381 C2.86502075,40.0767713 1.66356044,47.2035874 1.66356044,47.2035874 Z" id="Shape" fill="#B7AFA7"></path>
                                <path d="M1.75598046,45.4450224 C4.71342124,33.3201794 21.8111257,30.7286099 30.7758681,21.0102242 C42.9753113,7.77470852 33.5484688,2.96179372 33.5484688,2.96179372 L33.2712088,0.647892377 C33.2712088,0.647892377 40.3875506,0.925560538 42.0511111,14.8089686 C43.7146715,28.6923767 46.1175921,37.6703139 45.470652,40.7246637 C44.8237118,43.7790135 41.589011,27.9519283 32.6242686,27.489148 C32.2545885,33.5052915 29.6668278,35.4489686 24.7685665,38.5958744 C19.8703052,41.6502242 11.1828229,38.0405381 6.19214163,45.8152466 C4.06648107,49.0547085 2.40292063,49.9802691 1.57114041,61.3646637 C0.924200243,57.6624215 7.32747196e-15,52.6643946 1.75598046,45.4450224 Z" id="Shape" fill="#D8D5D0"></path>
                            </g>
                        </g>
                    </g>
                </g>
            </g>
        </g>
    </g>
</svg>