<?xml version="1.0" encoding="UTF-8"?>
<svg width="50px" height="67px" viewBox="0 0 50 67" version="1.1" xmlns="http://www.w3.org/2000/svg" xmlns:xlink="http://www.w3.org/1999/xlink">
    <!-- Generator: Sketch 42 (36781) - http://www.bohemiancoding.com/sketch -->
    <title>Fill 162</title>
    <desc>Created with Sketch.</desc>
    <defs></defs>
    <g id="Page-1" stroke="none" stroke-width="1" fill="none" fill-rule="evenodd">
        <g id="Desktop-Portrait" transform="translate(-550.000000, -890.000000)" fill="#292F36">
            <g id="Group-26" transform="translate(550.000000, 890.000000)">
                <g id="Group-24">
                    <path d="M25,31.25 C21.5479167,31.25 18.75,28.4520833 18.75,25 C18.75,21.5479167 21.5479167,18.75 25,18.75 C28.4520833,18.75 31.25,21.5479167 31.25,25 C31.25,28.4520833 28.4520833,31.25 25,31.25 L25,31.25 Z M25,14.5833333 C19.2479167,14.5833333 14.5833333,19.2458333 14.5833333,25 C14.5833333,30.7541667 19.2479167,35.4166667 25,35.4166667 C30.7520833,35.4166667 35.4166667,30.7541667 35.4166667,25 C35.4166667,19.2458333 30.7520833,14.5833333 25,14.5833333 L25,14.5833333 Z M25,60.4166667 C21.5354167,60.4354167 4.16666667,33.7104167 4.16666667,25 C4.16666667,13.4958333 13.49375,4.16666667 25,4.16666667 C36.50625,4.16666667 45.8333333,13.4958333 45.8333333,25 C45.8333333,33.59375 28.4104167,60.4354167 25,60.4166667 L25,60.4166667 Z M25,0 C11.19375,0 0,11.19375 0,25 C0,35.4541667 20.84375,66.6895833 25,66.6666667 C29.0916667,66.6895833 50,35.3125 50,25 C50,11.19375 38.80625,0 25,0 L25,0 Z" id="Fill-162"></path>
                </g>
            </g>
        </g>
    </g>
</svg>