<?xml version="1.0" encoding="UTF-8"?>
<svg width="50px" height="50px" viewBox="0 0 50 50" version="1.1" xmlns="http://www.w3.org/2000/svg" xmlns:xlink="http://www.w3.org/1999/xlink">
    <!-- Generator: Sketch 42 (36781) - http://www.bohemiancoding.com/sketch -->
    <title>Fill 109</title>
    <desc>Created with Sketch.</desc>
    <defs></defs>
    <g id="Page-1" stroke="none" stroke-width="1" fill="none" fill-rule="evenodd">
        <g id="Desktop-Portrait" transform="translate(-120.000000, -629.000000)" fill="#292F36">
            <g id="Group-28" transform="translate(120.000000, 629.000000)">
                <g id="Group-20">
                    <path d="M14.0625,6.25 C13.2,6.25 12.5,6.95 12.5,7.8125 C12.5,8.6765625 13.2,9.375 14.0625,9.375 C14.925,9.375 15.625,8.6765625 15.625,7.8125 C15.625,6.95 14.925,6.25 14.0625,6.25 L14.0625,6.25 Z M20.3125,6.25 C19.45,6.25 18.75,6.95 18.75,7.8125 C18.75,8.6765625 19.45,9.375 20.3125,9.375 C21.175,9.375 21.875,8.6765625 21.875,7.8125 C21.875,6.95 21.175,6.25 20.3125,6.25 L20.3125,6.25 Z M46.875,12.5 L3.125,12.5 L3.125,6.25 C3.125,4.525 4.525,3.125 6.25,3.125 L43.75,3.125 C45.475,3.125 46.875,4.525 46.875,6.25 L46.875,12.5 L46.875,12.5 Z M46.875,43.75 C46.875,45.475 45.475,46.875 43.75,46.875 L6.25,46.875 C4.525,46.875 3.125,45.475 3.125,43.75 L3.125,15.625 L46.875,15.625 L46.875,43.75 L46.875,43.75 Z M43.75,0 L6.25,0 C2.7984375,0 0,2.7984375 0,6.25 L0,43.75 C0,47.2015625 2.7984375,50 6.25,50 L43.75,50 C47.2015625,50 50,47.2015625 50,43.75 L50,6.25 C50,2.7984375 47.2015625,0 43.75,0 L43.75,0 Z M7.8125,6.25 C6.95,6.25 6.25,6.95 6.25,7.8125 C6.25,8.6765625 6.95,9.375 7.8125,9.375 C8.675,9.375 9.375,8.6765625 9.375,7.8125 C9.375,6.95 8.675,6.25 7.8125,6.25 L7.8125,6.25 Z" id="Fill-109"></path>
                </g>
            </g>
        </g>
    </g>
</svg>