<?xml version="1.0" encoding="UTF-8"?>
<svg width="197px" height="264px" viewBox="0 0 197 264" version="1.1" xmlns="http://www.w3.org/2000/svg" xmlns:xlink="http://www.w3.org/1999/xlink">
    <!-- Generator: Sketch 42 (36781) - http://www.bohemiancoding.com/sketch -->
    <title>Logan</title>
    <desc>Created with Sketch.</desc>
    <defs></defs>
    <g id="Page-1" stroke="none" stroke-width="1" fill="none" fill-rule="evenodd">
        <g id="avatar-(1)" transform="translate(-35.000000, -10.000000)" fill-rule="nonzero">
            <g id="Logan">
                <g id="Body_2_" transform="translate(35.000000, 171.000000)">
                    <path d="M94.8,0.9 L94.8,1 C83.7,1.3 54.5,0.9 27.7,10.4 C14,16 -17.4,68.2 14.1,82.3 C39.2,93.6 77.1,102.6 97.9,102.6 L97.9,0.9 L94.8,0.9 Z" id="Shape" fill="#B1C98F"></path>
                    <path d="M168.1,10.4 C144.4,3.5 112.1,1.3 101,1 L101,0.9 C101,0.9 99.9,0.9 97.9,1 L97.9,102.7 C118.8,102.7 156.6,93.7 181.7,82.4 C213.2,68.2 186,19.5 168.1,10.4 Z" id="Shape" fill="#62774F"></path>
                </g>
                <g id="Mask_1_" transform="translate(110.000000, 157.000000)" fill="#ECBE9D">
                    <path d="M0.9,0 L44.9,0 L44.9,28.5 C44.9,28.5 43.1,43.7 22.9,43.7 C2.7,43.7 0.9,28.5 0.9,28.5 L0.9,0 Z" id="path-3_3_"></path>
                </g>
                <ellipse id="Oval-2_5_" fill="#DDB190" transform="translate(84.245844, 104.845843) rotate(-88.000091) translate(-84.245844, -104.845843) " cx="84.2458438" cy="104.845843" rx="14.5001323" ry="8.00007298"></ellipse>
                <ellipse id="Oval-2_2_" fill="#D2A88A" transform="translate(180.501835, 103.801038) rotate(-1.999909) translate(-180.501835, -103.801038) " cx="180.501835" cy="103.801038" rx="8.00007298" ry="14.5001323"></ellipse>
                <g id="Face_2_" transform="translate(86.000000, 39.000000)">
                    <path d="M0.4,65 C0.4,127.3 20.1,130 46.9,130 L46.9,0 C26,0 0.4,2.8 0.4,65 Z" id="Shape" fill="#ECBE9D"></path>
                    <path d="M93.4,65 C93.4,10.7 73.7,0 46.9,0 L46.9,130 C73.7,130 93.4,119.3 93.4,65 Z" id="Shape" fill="#DDB190"></path>
                </g>
                <path d="M86,91.4 L86,100 C86,102.2 84.2,109.5 82,104.8 C80.5,107.4 79.4,114.8 84.9,118.2 C82.1,119.3 81.8,124.9 84.2,125.9 C86.5,126.9 84.9,135.4 82,132.2 C82,138.9 86,137.1 86.1,140.4 C86.1,142.9 83.2,144.3 84.9,151.3 C85.6,148.6 89.6,149.9 87.5,158.6 C86.7,161.7 89.3,163.6 90.8,164.9 C93.6,167.5 89.3,170 88.3,167.8 C88,170.1 89.6,173.1 93.1,172.7 C91.8,176.8 95.9,179.7 96.4,182.1 C97.5,186.9 101.4,185.8 103.8,187.1 C102.9,189 105.9,193.9 109.3,194.2 C110.9,194.4 112.2,196.7 109.2,197.3 C111.6,200.2 113.5,198.9 114.1,199.4 C113.4,200.9 117.1,203.1 119.8,203.5 C122.2,203.9 121.2,203.6 123.9,204.1 C124.3,205 124.2,206.6 133.1,206.6 C136.8,206.6 139.2,206.1 142.8,203.9 C142,202.7 144.7,200.5 146.8,200.5 C149.1,200.5 148,202 146.8,202.7 C147.8,203.1 150.1,201.8 150,200 C157.6,200.4 160.7,196 159.6,192.6 C161.6,195.7 168,189.8 165.8,185.8 C169.6,187.4 173.5,183.2 172.5,179.7 C170.2,182.3 169.2,179.7 172.7,176.5 C175.2,173.4 175.5,172.6 176.2,167.7 C181.1,165 177.9,159.7 178.5,156 C178.9,154.2 181.2,153 182.1,151.7 C183.6,149.8 183.8,147.7 181.9,146.7 C182.5,148.9 177.1,146 181.2,140.8 C181.1,139.2 182.6,139.4 182.6,136.8 C182.6,134.1 181.3,134.2 181.2,130.9 C181.1,128.3 182.5,128.6 182.7,130.3 C185,124.7 182.1,120.8 181.4,120.4 C181.4,119.5 182.8,114.7 181.1,111.5 C180.4,110.3 182.6,107.7 182.8,111.5 C186.3,107.6 179.8,101.6 179.7,98.2 C179.6,93.7 179.5,90.9 179.5,90.9 L176.2,86.9 L175.6,125.7 C175.6,125.7 162.8,135.4 159.1,132.5 C155.4,129.6 154.8,127.7 148.5,125.2 C144.3,123.5 142.9,123.9 133.2,123.9 C122.4,123.9 122.5,123.3 118.1,125.2 C112.6,127.6 111.5,129.2 108.2,132.5 C104.9,135.8 90.9,125.3 90.9,125.3 L90.8,86.9 L86,91.4 Z M132.6,135.3 C132.6,135.3 136,139.6 146,139.6 C150.8,139.6 148,147.9 143.7,147.9 C139.4,147.9 136.9,145.9 133.8,145.9 C130.7,145.9 127.4,147.9 123,147.9 C118.6,147.9 114.5,139.6 119.6,139.6 C129.2,139.7 132.6,135.3 132.6,135.3 Z" id="Shape" fill="#513414"></path>
                <g id="Eyebrows" transform="translate(96.000000, 73.000000)" fill="#513414">
                    <path d="M45.1,8 C47.5,0.2 60,-1.8 67.2,1.8 C72.7,4.5 74.1,9.8 74.1,9.8 C74.1,9.8 67.7,7.7 60.9,7.3 C53.8,6.9 43.4,13.6 45.1,8 Z" id="Eyebrows_1_"></path>
                    <path d="M29.3,8 C26.9,0.2 14.4,-1.8 7.2,1.8 C1.7,4.5 0.3,9.8 0.3,9.8 C0.3,9.8 6.7,7.7 13.5,7.3 C20.6,6.9 31,13.6 29.3,8 Z" id="Eyebrows_2_"></path>
                </g>
                <g id="Hair_3_" transform="translate(68.000000, 10.000000)">
                    <path d="M55,5.5 C44,-2.5 35,7.5 34.5,11.5 C34,15.5 30.2,13 24.2,15 C18.2,17 19.8,23 18.4,22.5 C17,22 10,25 12,30 C14,35 12.7,39.5 11,42.5 C9.3,45.5 14.4,44.5 8.2,47.5 C2,50.5 1.5,51 3.5,56.5 C5.5,62 5.1,62.6 5.9,66.1 C6.7,69.6 0.1,65.1 2.5,74 C3.8,79 7.5,81.4 5.9,85.4 C7.3,87.9 7.7,90 8.5,90 C10.9,90 11.2,92.3 9.2,93.1 C17.3,95.2 19.3,89.4 18,88.4 C16.7,87.4 23.2,95.4 23.2,86.3 C23.2,67.7 23.9,65.7 27,56.6 C30.7,50.1 27,56.6 32,50.3 C37,44 37.5,40.4 44.7,38.6 C51.9,36.8 54.8,47 67.1,47 C79.4,47 73.4,45.3 80.7,42.9 C88,40.5 94.7,46 100,54 C105.3,62 102.5,60 104.5,64.5 C106.5,69 107.8,57.7 107.8,75.7 C107.8,82.6 108.1,84.4 109.3,90.5 C110.1,94.3 114.7,93 118.9,89.6 C122.8,86.4 118.2,82.3 122.9,78 C125,76.1 124.9,72.3 125.9,68.5 C127,64.5 129,60.5 125.7,60.5 C118.5,52.3 124.7,51 120.6,47.5 C113,41.1 126.5,40 120.6,33.5 C114.7,27 108.5,27.2 109.5,22 C111.5,11.3 94,18.4 93.6,14.5 C93.2,10.4 85.3,-1.7 75.6,3 C71.7,4.9 71.8,3.4 68.8,0.9 C65.8,-1.6 55,5.5 55,5.5 Z" id="Hair_1_" fill="#301C0D"></path>
                    <path d="M110,81.9 C108,82.2 107.1,91.2 112.1,95.2 L114.7,91.5 C118,91.6 116.3,92 116.9,88.8 C117.4,86.4 115.5,84.3 113.7,82.7 C120.5,78.5 123.9,69.3 121.3,61.7 C117.9,63.6 113.1,62.2 111.3,58.7 C114.7,56.6 117.3,53.2 118.2,49.3 C118.5,47.9 118.7,46.5 119.4,45.2 C120.3,43.7 121.9,42.5 121.9,40.7 C121.8,38.6 119.4,37.5 117.3,37.2 C115.2,36.9 112.8,36.7 111.6,35 C110.8,33.8 110.8,32.2 110.5,30.7 C110.1,28.7 108.8,26.9 107.4,25.3 C103.6,21 97.3,17.8 92.1,20.4 L93.9,19.4 C96.7,19 98,15.4 97,12.7 C96,10 93.7,8.2 91.5,6.5 C89.7,5.2 87.9,3.8 85.7,3.4 C83.5,3 80.9,3.9 80.1,6 C77.9,2 71.6,1.3 68.6,4.6 C68,5.3 67.4,6.1 66.6,6.5 C65.6,6.9 64.5,6.7 63.5,6.4 C59.9,5.4 56.2,4.1 52.5,4.5 C48.8,4.9 45,7.7 44.9,11.5 C41.5,11.7 38.2,9 37.8,5.6 C35.6,5.4 33.4,7.2 33.2,9.5 C33,11.8 34.7,14 36.9,14.3 C32.6,16.2 27.7,15.3 23.1,15.7 C18.4,16 13.1,18.6 12.7,23.2 C15.3,20.7 19.6,20 22.9,21.6 C18.8,23.2 14.8,25.2 11.1,27.5 C9.9,28.2 8.7,29.1 8.3,30.4 C7.6,32.3 8.9,34.5 10.7,35.5 C12.5,36.5 14.6,36.6 16.7,36.7 C14.1,40.6 8.5,42.2 4.2,40.2 C6,44.6 11.6,46.9 16,45.1 C14.6,47.6 11.7,48.8 9,49.7 C6.3,50.7 3.4,51.8 1.9,54.2 C0.4,56.6 1.5,60.7 4.4,60.9 C4.6,59.1 7,57.9 8.5,58.9 C6.8,59.7 6.4,62.1 7.3,63.8 C8.2,65.5 9.9,66.6 11.5,67.5 C9,71 4.5,72.9 0.3,72.2 C2.8,75.9 8.2,77.2 12.1,75.1 L12.1,81 C10.3,81.7 8.4,82.4 6.4,82.2 C5.1,82.1 3.8,81.4 3,80.4 L3,80.4 C6,87.1 13.3,91.7 20.7,91.2 L18,90 C18.5,90.8 19.8,90.5 20.3,89.8 C20.8,89.1 20.7,88.1 20.6,87.2 C20.2,83.6 19.5,80.1 19.8,76.5 C20.1,72.9 21.7,69.2 24.8,67.5 C25.9,66.9 27.1,66.6 28,65.8 C28.9,65 29.3,63.5 28.5,62.6 C28,62 27.1,62 26.4,61.8 C24.5,61.3 22.8,59.9 22,58.1 C24.8,58.2 27.7,58.4 30.4,57.3 C33,56.2 35.2,53.5 34.7,50.7 C34.5,49.3 33.6,48 33.7,46.6 C33.7,45.6 34.2,44.7 34.8,43.8 C37.7,39.7 43.5,38.1 48.1,40 C49.8,40.7 51.3,41.8 53.1,42.4 C56.6,43.5 60.3,42.3 63.8,41.1 C63.1,44.6 59.7,47.3 56.2,47.4 C68.2,49.5 81,46.9 91.2,40.2 L86.1,43.6 C90.9,41.1 97.4,42.8 100.4,47.3 C100.9,48.1 101.3,49.1 100.9,49.9 C100.4,50.8 99.3,50.9 98.4,51.4 C96.7,52.4 96.3,54.8 97.2,56.5 C98.1,58.2 100,59.2 101.9,59.5 C103.8,59.8 105.8,59.5 107.7,59.2 C107.9,62.1 106.3,65.1 103.8,66.5 C101.3,67.9 97.9,67.7 95.6,65.9 C98.7,69.5 104.1,71 108.7,69.5 C110.1,70.9 107.8,73.2 107.6,75.3 C107.4,77.3 107.7,79.8 109.6,80.5 L110,81.9 Z" id="Shape" fill="#3D250D"></path>
                </g>
                <g id="Glasses_3_" transform="translate(88.000000, 85.000000)" fill="#5B0C06">
                    <path d="M44.9,5.3 C50.4,5.3 48.8,6.6 51.2,5.7 C54.3,4.4 57.1,0.1 69.6,0.1 C79.3,0.1 82.4,3.2 86.6,4.3 C87.4,4.5 89.1,4.7 89.2,4.9 C89.6,5.6 89.2,8.5 89.2,8.5 C89.1,9.1 87.7,8.9 87.2,9 C86.8,9.1 86.1,9.5 85.8,10.2 C85.7,11.1 84.6,20.4 81.3,24.8 C79.3,27.4 74.3,29.8 68,29.9 C60.7,30 53.1,27.1 51.2,18 C50.4,14.1 50.9,8.1 44.9,8.1 L44.9,5.3 Z M53.4,7.4 C52.3,9.2 52.5,14.5 53.2,17.6 C56.2,32.3 73.1,29.3 78.6,25.6 C84,21.9 85,8.4 82.4,6.1 C80,4.1 74.8,2.3 67.8,2.3 C60.8,2.3 54.1,5.5 53.4,7.4 Z" id="Glasses_1_"></path>
                    <path d="M44.9,8.1 C38.9,8.1 39.4,14.1 38.6,18 C36.7,27.1 29,30 21.8,29.9 C15.6,29.8 10.6,27.4 8.5,24.8 C5.2,20.4 4.1,11.1 4,10.2 C3.7,9.5 3,9.1 2.6,9 C2.1,8.9 0.7,9.1 0.6,8.5 C0.6,8.5 0.2,5.6 0.6,4.9 C0.7,4.7 2.4,4.5 3.2,4.3 C7.5,3.2 10.6,0.1 20.2,0.1 C32.7,0.1 35.5,4.4 38.6,5.7 C41,6.6 39.4,5.3 44.9,5.3 L44.9,8.1 Z M22,2.3 C15,2.3 9.8,4.1 7.4,6.1 C4.8,8.4 5.8,21.9 11.2,25.6 C16.7,29.3 33.6,32.3 36.6,17.6 C37.3,14.5 37.5,9.2 36.4,7.4 C35.7,5.5 29,2.3 22,2.3 Z" id="Glasses_2_"></path>
                </g>
            </g>
        </g>
    </g>
</svg>