<?xml version="1.0" encoding="UTF-8"?>
<svg width="60px" height="53px" viewBox="0 0 60 53" version="1.1" xmlns="http://www.w3.org/2000/svg" xmlns:xlink="http://www.w3.org/1999/xlink">
    <!-- Generator: Sketch 42 (36781) - http://www.bohemiancoding.com/sketch -->
    <title>Fill 212</title>
    <desc>Created with Sketch.</desc>
    <defs></defs>
    <g id="Page-1" stroke="none" stroke-width="1" fill="none" fill-rule="evenodd">
        <g id="Desktop-Portrait" transform="translate(-551.000000, -626.000000)" fill="#292F36">
            <g id="Group-25" transform="translate(550.000000, 626.000000)">
                <g id="Group-23" transform="translate(1.000000, 0.000000)">
                    <path d="M55.7535606,6.77724045 L31.9633747,30.2655489 L29.3439792,27.6799037 L53.1360401,4.19159525 C53.8597958,3.47721467 55.0316799,3.47721467 55.7535606,4.19159525 C56.4773162,4.90597583 56.4773162,6.06285987 55.7535606,6.77724045 L55.7535606,6.77724045 Z M25.4176986,36.7305995 C25.1758217,36.4924726 22.7983031,34.1449543 22.7983031,34.1449543 L26.7264588,30.2655489 L29.3439792,32.8511941 L25.4176986,36.7305995 L25.4176986,36.7305995 Z M21.4895429,45.7775451 C19.6445285,47.4894335 11.4000891,51.3050883 6.54567614,47.6056844 C6.54567614,47.6056844 8.23506434,46.2875491 9.51382433,43.6419035 C12.5682232,35.5287151 20.1807827,36.7305995 20.1807827,36.7305995 L22.7983031,39.3143696 C22.8245533,39.3406198 24.7539434,42.7512715 21.4895429,45.7775451 L21.4895429,45.7775451 Z M58.372956,1.60595005 C56.2035641,-0.535316682 52.6860366,-0.535316682 50.5166447,1.60595005 L18.307643,33.4080735 C14.3644872,33.3180728 8.90256955,34.7149587 6.54567614,42.436269 C4.74378706,46.5200509 0,46.3137993 0,46.3137993 C9.84945195,57.2395097 21.4576676,51.0482113 24.1070633,48.3631903 C26.4377065,46.0044219 26.7733342,43.1168994 26.5239572,40.8068813 L58.372956,9.36288565 C60.542348,7.2197439 60.542348,3.74721678 58.372956,1.60595005 L58.372956,1.60595005 Z" id="Fill-212"></path>
                </g>
            </g>
        </g>
    </g>
</svg>