<?xml version="1.0" encoding="UTF-8"?>
<svg width="60px" height="57px" viewBox="0 0 60 57" version="1.1" xmlns="http://www.w3.org/2000/svg" xmlns:xlink="http://www.w3.org/1999/xlink">
    <!-- Generator: Sketch 42 (36781) - http://www.bohemiancoding.com/sketch -->
    <title>Fill 180</title>
    <desc>Created with Sketch.</desc>
    <defs></defs>
    <g id="Page-1" stroke="none" stroke-width="1" fill="none" fill-rule="evenodd">
        <g id="Desktop-Portrait" transform="translate(-120.000000, -895.000000)" fill="#292F36">
            <g id="Group-27" transform="translate(120.000000, 895.000000)">
                <g id="Group-22">
                    <path d="M56.25,45 L43.125,35.625 L43.125,13.125 L56.25,3.75 L56.25,45 L56.25,45 Z M39.375,33.75 L33.75,33.75 L33.75,15 L39.375,15 L39.375,33.75 L39.375,33.75 Z M30,33.75 L15,33.75 C11.2725,33.75 3.75,32.65875 3.75,24.375 C3.75,16.09125 11.14875,14.878125 15,15 L30,15 L30,33.75 L30,33.75 Z M20.625,50.625 C20.625,51.661875 19.785,52.5 18.75,52.5 L16.875,52.5 C15.84,52.5 15,51.661875 15,50.625 L15,37.5 L20.625,37.5 L20.625,50.625 L20.625,50.625 Z M56.25,0 L39.375,11.25 L15,11.25 C6.71625,11.25 0,16.09125 0,24.375 C0,31.374375 4.76625,36.260625 11.25,37.5 C11.334375,38.00625 11.25,52.5 11.25,52.5 C11.25,54.57 12.93,56.25 15,56.25 L20.625,56.25 C22.695,56.25 24.375,54.57 24.375,52.5 L24.375,37.5 L39.375,37.5 L56.25,48.75 C58.32,48.75 60,47.07 60,45 L60,3.75 C60,1.68 58.32,0 56.25,0 L56.25,0 Z" id="Fill-180"></path>
                </g>
            </g>
        </g>
    </g>
</svg>