<?xml version="1.0" encoding="UTF-8"?>
<svg width="174px" height="73px" viewBox="0 0 174 73" version="1.1" xmlns="http://www.w3.org/2000/svg" xmlns:xlink="http://www.w3.org/1999/xlink">
    <!-- Generator: Sketch 42 (36781) - http://www.bohemiancoding.com/sketch -->
    <title>Group</title>
    <desc>Created with Sketch.</desc>
    <defs></defs>
    <g id="Page-1" stroke="none" stroke-width="1" fill="none" fill-rule="evenodd">
        <g id="Desktop-Portrait" transform="translate(-33.000000, -24.000000)" fill="#FFFFFF">
            <g id="Group" transform="translate(33.000000, 24.000000)">
                <g id="Group-3">
                    <path d="M2.16394448,48.1489362 L10.136025,1.30468085 L22.2187096,1.30468085 L31.6232733,26.28 L40.9655552,1.30468085 L53.0482398,1.30468085 L61.0203203,48.1489362 L48.8753539,48.1489362 L44.8270317,21.1855319 L33.7408572,48.1489362 L28.8828707,48.1489362 L18.3572331,21.1855319 L14.3089109,48.1489362 L2.16394448,48.1489362 Z M91.7486425,37.8357447 L94.5513271,37.8357447 C96.6689216,37.8357447 98.5581197,37.5044005 100.218978,36.8417021 C101.879837,36.1790038 103.281165,35.2678072 104.423005,34.1080851 C105.564845,32.948363 106.436783,31.5712136 107.038844,29.9765957 C107.640905,28.3819778 107.941931,26.6320663 107.941931,24.7268085 C107.941931,22.8629694 107.630525,21.1234123 107.007703,19.5080851 C106.384881,17.8927579 105.502563,16.505254 104.360723,15.3455319 C103.218883,14.1858098 101.817555,13.2746132 100.156696,12.6119149 C98.4958378,11.9492165 96.6274001,11.6178723 94.5513271,11.6178723 L91.7486425,11.6178723 L91.7486425,37.8357447 Z M79.5413942,1.30468085 L97.6031392,1.30468085 C100.800292,1.30468085 103.800172,1.94666025 106.602871,3.2306383 C109.405569,4.51461635 111.855299,6.2231099 113.952132,8.35617021 C116.048966,10.4892305 117.69942,12.9743121 118.903542,15.8114894 C120.107664,18.6486667 120.709716,21.62041 120.709716,24.7268085 C120.709716,27.7917884 120.118044,30.7428227 118.934683,33.58 C117.751321,36.4171773 116.111248,38.9126133 114.014414,41.066383 C111.917581,43.2201526 109.467851,44.9390007 106.665153,46.2229787 C103.862454,47.5069568 100.841813,48.1489362 97.6031392,48.1489362 L79.5413942,48.1489362 L79.5413942,1.30468085 Z M173.112133,16.9608511 C170.288673,13.5231034 166.800923,11.8042553 162.648777,11.8042553 C160.821833,11.8042553 159.129858,12.1355995 157.572804,12.7982979 C156.015749,13.4609962 154.676702,14.3618383 153.555622,15.5008511 C152.434543,16.6398639 151.552225,17.9963042 150.908643,19.5702128 C150.26506,21.1441213 149.943273,22.8422604 149.943273,24.6646809 C149.943273,26.52852 150.26506,28.247368 150.908643,29.8212766 C151.552225,31.3951852 152.444923,32.76198 153.586763,33.9217021 C154.728604,35.0814242 156.067651,35.9926208 157.603945,36.6553191 C159.140239,37.3180175 160.801072,37.6493617 162.586495,37.6493617 C166.489512,37.6493617 169.998023,35.9926407 173.112133,32.6791489 L173.112133,47.092766 L171.866495,47.5276596 C169.998029,48.1903579 168.254154,48.6770197 166.634817,48.9876596 C165.01548,49.2982994 163.416928,49.453617 161.839112,49.453617 C158.600438,49.453617 155.496756,48.8427011 152.527971,47.6208511 C149.559187,46.399001 146.943374,44.6801529 144.680455,42.4642553 C142.417535,40.2483577 140.600998,37.6183131 139.23079,34.5740426 C137.860582,31.529772 137.175488,28.2059755 137.175488,24.6025532 C137.175488,20.9991309 137.850202,17.6960434 139.199649,14.6931915 C140.549097,11.6903396 142.355253,9.101713 144.618173,6.92723404 C146.881092,4.75275509 149.507285,3.05461604 152.496831,1.83276596 C155.486376,0.610915877 158.621199,0 161.901394,0 C163.76986,0 165.607157,0.196735621 167.413341,0.590212766 C169.219524,0.983689911 171.119102,1.59460579 173.112133,2.42297872 L173.112133,16.9608511 Z" id="M-D-C"></path>
                    <path d="M0.218285378,72.5459121 L1.71305048,63.7626142 L3.97855383,63.7626142 L5.74190954,68.4454865 L7.49358739,63.7626142 L9.75909075,63.7626142 L11.2538558,72.5459121 L8.97667464,72.5459121 L8.21761424,67.4902738 L6.13895652,72.5459121 L5.22808404,72.5459121 L3.25452699,67.4902738 L2.49546659,72.5459121 L0.218285378,72.5459121 Z M18.337122,68.3289972 L15.1257126,63.7626142 L17.85833,63.7626142 L19.4932294,66.162295 L21.1164508,63.7626142 L23.8490683,63.7626142 L20.625981,68.3289972 L20.625981,72.5459121 L18.337122,72.5459121 L18.337122,68.3289972 Z M33.174482,65.6963376 L30.4535425,65.6963376 L30.4535425,67.1641035 L33.02267,67.1641035 L33.02267,69.0978269 L30.4535425,69.0978269 L30.4535425,70.6121886 L33.174482,70.6121886 L33.174482,72.5459121 L28.1646834,72.5459121 L28.1646834,63.7626142 L33.174482,63.7626142 L33.174482,65.6963376 Z M40.6197616,67.6883057 L41.0518421,67.6883057 C41.503388,67.6883057 41.8498275,67.5951151 42.091171,67.4087312 C42.3325145,67.2223473 42.4531844,66.9544244 42.4531844,66.6049546 C42.4531844,66.2554848 42.3325145,65.9875619 42.091171,65.801178 C41.8498275,65.6147941 41.503388,65.5216035 41.0518421,65.5216035 L40.6197616,65.5216035 L40.6197616,67.6883057 Z M45.652916,72.5459121 L42.80352,72.5459121 L40.6197616,69.1677206 L40.6197616,72.5459121 L38.3309025,72.5459121 L38.3309025,63.7626142 L41.8926475,63.7626142 C42.3831197,63.7626142 42.8113034,63.8344486 43.1772113,63.9781195 C43.5431191,64.1217904 43.844794,64.3178789 44.0822448,64.5663908 C44.3196957,64.8149027 44.4987543,65.1022402 44.619426,65.4284121 C44.7400978,65.7545839 44.8004327,66.1040485 44.8004327,66.4768163 C44.8004327,67.144692 44.6388907,67.6863621 44.3158019,68.1018429 C43.992713,68.5173237 43.5158721,68.7988368 42.8852649,68.9463908 L45.652916,72.5459121 Z M54.954974,66.0108589 C54.7058453,65.808943 54.4567202,65.6594498 54.2075915,65.5623748 C53.9584627,65.4652999 53.7171228,65.4167631 53.4835646,65.4167631 C53.1877242,65.4167631 52.9463844,65.486656 52.7595378,65.626444 C52.5726912,65.7662319 52.4792693,65.9487301 52.4792693,66.173944 C52.4792693,66.3292639 52.5259803,66.4574009 52.6194036,66.5583589 C52.7128268,66.6593168 52.8354431,66.746683 52.9872559,66.8204599 C53.1390687,66.8942369 53.3103422,66.9583054 53.5010814,67.0126674 C53.6918206,67.0670293 53.8806107,67.1252734 54.0674572,67.1874014 C54.8148435,67.4359133 55.3617508,67.7679047 55.7081955,68.1833855 C56.0546402,68.5988663 56.2278599,69.1405364 56.2278599,69.8084121 C56.2278599,70.2588398 56.1519546,70.6665485 56.0001418,71.0315504 C55.848329,71.3965522 55.626452,71.7091288 55.3345042,71.9692897 C55.0425565,72.2294506 54.6844392,72.4313635 54.2601418,72.5750344 C53.8358444,72.7187053 53.3551109,72.7905397 52.817927,72.7905397 C51.7046329,72.7905397 50.6730996,72.4604898 49.7232962,71.8003801 L50.7042358,69.9598482 C51.0467878,70.2627221 51.3854421,70.4879326 51.7202089,70.6354865 C52.0549757,70.7830405 52.3858449,70.8568163 52.7128264,70.8568163 C53.0865195,70.8568163 53.3648389,70.7713916 53.5477928,70.6005397 C53.7307467,70.4296878 53.8222223,70.2355408 53.8222223,70.0180929 C53.8222223,69.886071 53.7988669,69.7715242 53.7521552,69.6744493 C53.7054436,69.5773743 53.627592,69.4880667 53.5185982,69.4065238 C53.4096043,69.3249808 53.2675252,69.2492635 53.0923566,69.1793695 C52.9171879,69.1094755 52.7050424,69.0318167 52.4559136,68.9463908 C52.1600732,68.8531988 51.8700761,68.7503009 51.5859136,68.637694 C51.3017511,68.525087 51.0487335,68.3755938 50.8268532,68.1892099 C50.6049729,68.002826 50.4259143,67.7679082 50.289672,67.4844493 C50.1534297,67.2009904 50.0853096,66.8418185 50.0853096,66.4069227 C50.0853096,65.9720269 50.1573223,65.5779085 50.3013499,65.2245557 C50.4453774,64.8712028 50.6477915,64.5683335 50.9085982,64.3159386 C51.1694049,64.0635438 51.4885963,63.8674553 51.8661821,63.7276674 C52.2437679,63.5878794 52.6661126,63.5179865 53.1332291,63.5179865 C53.5692044,63.5179865 54.0246361,63.5781721 54.4995378,63.698545 C54.9744395,63.818918 55.4298712,63.9955917 55.8658465,64.2285716 L54.954974,66.0108589 Z M70.9432512,70.6121886 L71.4687546,70.6121886 C71.8658035,70.6121886 72.2200282,70.5500616 72.5314391,70.4258057 C72.8428501,70.3015497 73.1055992,70.1307004 73.3196942,69.9132525 C73.5337892,69.6958046 73.6972775,69.4375891 73.810164,69.1385982 C73.9230504,68.8396074 73.9794928,68.5114989 73.9794928,68.1542631 C73.9794928,67.8047933 73.9211042,67.4786263 73.8043251,67.1757525 C73.6875459,66.8728786 73.5221114,66.6127217 73.3080163,66.3952738 C73.0939213,66.1778259 72.8311722,66.0069765 72.5197613,65.8827206 C72.2083503,65.7584646 71.8580183,65.6963376 71.4687546,65.6963376 L70.9432512,65.6963376 L70.9432512,70.6121886 Z M68.6543922,63.7626142 L72.0409693,63.7626142 C72.6404354,63.7626142 73.202913,63.8829853 73.728419,64.1237312 C74.253925,64.3644771 74.7132493,64.6848196 75.1064056,65.0847684 C75.4995619,65.4847172 75.8090219,65.95067 76.0347949,66.4826408 C76.2605678,67.0146115 76.3734526,67.5718134 76.3734526,68.1542631 C76.3734526,68.7289468 76.2625141,69.2822658 76.0406338,69.8142365 C75.8187535,70.3462073 75.5112398,70.8141015 75.1180834,71.2179333 C74.7249271,71.6217651 74.2656028,71.9440491 73.7400969,72.184795 C73.2145909,72.4255409 72.6482207,72.5459121 72.0409693,72.5459121 L68.6543922,72.5459121 L68.6543922,63.7626142 Z M86.3528261,65.6963376 L83.6318865,65.6963376 L83.6318865,67.1641035 L86.201014,67.1641035 L86.201014,69.0978269 L83.6318865,69.0978269 L83.6318865,70.6121886 L86.3528261,70.6121886 L86.3528261,72.5459121 L81.3430274,72.5459121 L81.3430274,63.7626142 L86.3528261,63.7626142 L86.3528261,65.6963376 Z M96.3438774,66.0108589 C96.0947487,65.808943 95.8456236,65.6594498 95.5964949,65.5623748 C95.3473661,65.4652999 95.1060262,65.4167631 94.872468,65.4167631 C94.5766276,65.4167631 94.3352878,65.486656 94.1484412,65.626444 C93.9615946,65.7662319 93.8681727,65.9487301 93.8681727,66.173944 C93.8681727,66.3292639 93.9148837,66.4574009 94.008307,66.5583589 C94.1017302,66.6593168 94.2243465,66.746683 94.3761593,66.8204599 C94.5279721,66.8942369 94.6992456,66.9583054 94.8899848,67.0126674 C95.080724,67.0670293 95.2695141,67.1252734 95.4563606,67.1874014 C96.2037469,67.4359133 96.7506542,67.7679047 97.0970989,68.1833855 C97.4435436,68.5988663 97.6167633,69.1405364 97.6167633,69.8084121 C97.6167633,70.2588398 97.5408581,70.6665485 97.3890452,71.0315504 C97.2372324,71.3965522 97.0153554,71.7091288 96.7234076,71.9692897 C96.4314599,72.2294506 96.0733426,72.4313635 95.6490452,72.5750344 C95.2247478,72.7187053 94.7440143,72.7905397 94.2068304,72.7905397 C93.0935363,72.7905397 92.062003,72.4604898 91.1121996,71.8003801 L92.0931392,69.9598482 C92.4356912,70.2627221 92.7743456,70.4879326 93.1091123,70.6354865 C93.4438791,70.7830405 93.7747483,70.8568163 94.1017298,70.8568163 C94.4754229,70.8568163 94.7537423,70.7713916 94.9366962,70.6005397 C95.1196502,70.4296878 95.2111257,70.2355408 95.2111257,70.0180929 C95.2111257,69.886071 95.1877703,69.7715242 95.1410586,69.6744493 C95.094347,69.5773743 95.0164954,69.4880667 94.9075016,69.4065238 C94.7985078,69.3249808 94.6564286,69.2492635 94.48126,69.1793695 C94.3060913,69.1094755 94.0939458,69.0318167 93.844817,68.9463908 C93.5489766,68.8531988 93.2589795,68.7503009 92.974817,68.637694 C92.6906545,68.525087 92.4376369,68.3755938 92.2157566,68.1892099 C91.9938763,68.002826 91.8148177,67.7679082 91.6785754,67.4844493 C91.5423331,67.2009904 91.474213,66.8418185 91.474213,66.4069227 C91.474213,65.9720269 91.5462257,65.5779085 91.6902533,65.2245557 C91.8342808,64.8712028 92.0366949,64.5683335 92.2975016,64.3159386 C92.5583083,64.0635438 92.8774997,63.8674553 93.2550855,63.7276674 C93.6326713,63.5878794 94.055016,63.5179865 94.5221325,63.5179865 C94.9581078,63.5179865 95.4135395,63.5781721 95.8884412,63.698545 C96.3633429,63.818918 96.8187746,63.9955917 97.2547499,64.2285716 L96.3438774,66.0108589 Z M104.851842,63.7626142 L104.851842,72.5459121 L102.562982,72.5459121 L102.562982,63.7626142 L104.851842,63.7626142 Z M114.492557,67.630061 L119.035242,67.630061 C119.035242,68.0960208 119.015779,68.5192612 118.976853,68.899795 C118.937926,69.2803288 118.860075,69.6336764 118.743296,69.9598482 C118.579805,70.418042 118.357928,70.8238092 118.077658,71.1771621 C117.797388,71.5305149 117.468465,71.8256183 117.090879,72.0624812 C116.713294,72.2993441 116.298734,72.4799008 115.847188,72.6041567 C115.395642,72.7284127 114.920748,72.7905397 114.42249,72.7905397 C113.737386,72.7905397 113.112627,72.6779345 112.548195,72.4527206 C111.983763,72.2275067 111.499137,71.9110471 111.094302,71.5033323 C110.689468,71.0956175 110.374169,70.606367 110.148396,70.0355663 C109.922623,69.4647656 109.809739,68.8337878 109.809739,68.1426142 C109.809739,67.4592065 109.920677,66.8321117 110.142557,66.261311 C110.364438,65.6905103 110.679736,65.2032013 111.088463,64.7993695 C111.49719,64.3955377 111.989601,64.0810196 112.565712,63.8558057 C113.141822,63.6305918 113.784097,63.5179865 114.492557,63.5179865 C115.41122,63.5179865 116.216983,63.7160165 116.909873,64.1120823 C117.602762,64.5081481 118.151616,65.1216526 118.55645,65.9526142 L116.384369,66.8495823 C116.181952,66.3680905 115.919203,66.0225088 115.596114,65.8128269 C115.273026,65.603145 114.905177,65.4983057 114.492557,65.4983057 C114.150005,65.4983057 113.838599,65.5623742 113.558329,65.6905131 C113.278059,65.8186521 113.038666,66.0011502 112.840141,66.2380131 C112.641617,66.474876 112.485914,66.7602721 112.373027,67.0942099 C112.260141,67.4281478 112.203698,67.80091 112.203698,68.2125078 C112.203698,68.5852756 112.252355,68.9308573 112.349671,69.2492631 C112.446987,69.567669 112.592959,69.8433577 112.787591,70.0763376 C112.982223,70.3093175 113.223563,70.4898742 113.511618,70.6180131 C113.799673,70.7461521 114.134435,70.8102206 114.515913,70.8102206 C114.741686,70.8102206 114.95967,70.7849815 115.169873,70.7345025 C115.380075,70.6840235 115.568865,70.6024818 115.736249,70.4898748 C115.903632,70.3772679 116.041819,70.2316576 116.150812,70.0530397 C116.259806,69.8744218 116.333765,69.6569772 116.372692,69.4006993 L114.492557,69.4006993 L114.492557,67.630061 Z M123.993139,72.5459121 L123.993139,63.7626142 L126.281998,63.7626142 L130.50938,69.1327738 L130.50938,63.7626142 L132.786562,63.7626142 L132.786562,72.5459121 L130.50938,72.5459121 L126.281998,67.1757525 L126.281998,72.5459121 L123.993139,72.5459121 Z M151.962893,66.6981461 C151.433494,66.0535684 150.779541,65.7312844 150.001013,65.7312844 C149.658461,65.7312844 149.341216,65.7934114 149.049268,65.9176674 C148.757321,66.0419233 148.506249,66.2108312 148.296047,66.4243961 C148.085845,66.637961 147.92041,66.8922936 147.799738,67.1874014 C147.679066,67.4825093 147.618732,67.8009103 147.618732,68.1426142 C147.618732,68.492084 147.679066,68.814368 147.799738,69.1094759 C147.92041,69.4045837 148.087791,69.6608578 148.301886,69.8783057 C148.515981,70.0957536 148.767052,70.2666029 149.055107,70.3908589 C149.343162,70.5151148 149.654569,70.5772418 149.989336,70.5772418 C150.721151,70.5772418 151.378997,70.2666066 151.962893,69.6453269 L151.962893,72.3478801 L151.729336,72.4294227 C151.378998,72.5536786 151.052022,72.6449277 150.748396,72.7031727 C150.44477,72.7614177 150.145042,72.7905397 149.849201,72.7905397 C149.24195,72.7905397 148.660009,72.675993 148.103362,72.4468961 C147.546715,72.2177992 147.05625,71.8955152 146.631953,71.4800344 C146.207656,71.0645536 145.867055,70.5714202 145.610141,70.0006195 C145.353227,69.4298188 145.224772,68.8066069 145.224772,68.1309652 C145.224772,67.4553236 145.351281,66.8359947 145.604302,66.2729599 C145.857323,65.7099252 146.195978,65.2245577 146.620275,64.8168429 C147.044573,64.4091281 147.536984,64.090727 148.097523,63.8616301 C148.658063,63.6325332 149.245843,63.5179865 149.860879,63.5179865 C150.211216,63.5179865 150.55571,63.5548744 150.894369,63.6286514 C151.233029,63.7024284 151.589199,63.8169751 151.962893,63.972295 L151.962893,66.6981461 Z M159.046159,68.1542631 C159.046159,68.5037329 159.112333,68.826017 159.244682,69.1211248 C159.377032,69.4162327 159.55609,69.6725067 159.781863,69.8899546 C160.007636,70.1074025 160.270385,70.2763104 160.570118,70.3966833 C160.869851,70.5170563 161.187097,70.5772418 161.521863,70.5772418 C161.85663,70.5772418 162.173875,70.5170563 162.473608,70.3966833 C162.773341,70.2763104 163.038037,70.1074025 163.267702,69.8899546 C163.497368,69.6725067 163.678373,69.4162327 163.810722,69.1211248 C163.943072,68.826017 164.009246,68.5037329 164.009246,68.1542631 C164.009246,67.8047933 163.943072,67.4825093 163.810722,67.1874014 C163.678373,66.8922936 163.497368,66.6360195 163.267702,66.4185716 C163.038037,66.2011237 162.773341,66.0322158 162.473608,65.9118429 C162.173875,65.79147 161.85663,65.7312844 161.521863,65.7312844 C161.187097,65.7312844 160.869851,65.79147 160.570118,65.9118429 C160.270385,66.0322158 160.007636,66.2011237 159.781863,66.4185716 C159.55609,66.6360195 159.377032,66.8922936 159.244682,67.1874014 C159.112333,67.4825093 159.046159,67.8047933 159.046159,68.1542631 Z M156.652199,68.1542631 C156.652199,67.5019194 156.772869,66.8942393 157.014212,66.3312046 C157.255556,65.7681699 157.590318,65.276978 158.018508,64.8576142 C158.446698,64.4382504 158.958572,64.110142 159.554145,63.8732791 C160.149719,63.6364162 160.805618,63.5179865 161.521863,63.5179865 C162.230323,63.5179865 162.884277,63.6364162 163.483743,63.8732791 C164.083209,64.110142 164.598975,64.4382504 165.031058,64.8576142 C165.463141,65.276978 165.799849,65.7681699 166.041192,66.3312046 C166.282536,66.8942393 166.403206,67.5019194 166.403206,68.1542631 C166.403206,68.8066068 166.282536,69.4142869 166.041192,69.9773216 C165.799849,70.5403564 165.463141,71.0315483 165.031058,71.4509121 C164.598975,71.8702759 164.083209,72.1983843 163.483743,72.4352472 C162.884277,72.67211 162.230323,72.7905397 161.521863,72.7905397 C160.805618,72.7905397 160.149719,72.67211 159.554145,72.4352472 C158.958572,72.1983843 158.446698,71.8702759 158.018508,71.4509121 C157.590318,71.0315483 157.255556,70.5403564 157.014212,69.9773216 C156.772869,69.4142869 156.652199,68.8066068 156.652199,68.1542631 Z M171.057479,71.4276142 C171.057479,71.2412303 171.092512,71.0645565 171.162579,70.8975876 C171.232647,70.7306187 171.329961,70.5850084 171.454526,70.4607525 C171.57909,70.3364965 171.725062,70.239423 171.892445,70.1695291 C172.059828,70.0996351 172.236941,70.0646886 172.423787,70.0646886 C172.610634,70.0646886 172.787746,70.0996351 172.95513,70.1695291 C173.122513,70.239423 173.268485,70.3364965 173.393049,70.4607525 C173.517613,70.5850084 173.614928,70.7306187 173.684995,70.8975876 C173.755063,71.0645565 173.790096,71.2412303 173.790096,71.4276142 C173.790096,71.6139981 173.755063,71.7906719 173.684995,71.9576408 C173.614928,72.1246097 173.517613,72.2702199 173.393049,72.3944759 C173.268485,72.5187318 173.122513,72.6158053 172.95513,72.6856993 C172.787746,72.7555933 172.610634,72.7905397 172.423787,72.7905397 C172.236941,72.7905397 172.059828,72.7555933 171.892445,72.6856993 C171.725062,72.6158053 171.57909,72.5187318 171.454526,72.3944759 C171.329961,72.2702199 171.232647,72.1246097 171.162579,71.9576408 C171.092512,71.7906719 171.057479,71.6139981 171.057479,71.4276142 Z" id="MYERS-DESIGN-CO."></path>
                </g>
            </g>
        </g>
    </g>
</svg>