<?xml version="1.0" encoding="UTF-8"?>
<svg width="193px" height="252px" viewBox="0 0 193 252" version="1.1" xmlns="http://www.w3.org/2000/svg" xmlns:xlink="http://www.w3.org/1999/xlink">
    <!-- Generator: Sketch 42 (36781) - http://www.bohemiancoding.com/sketch -->
    <title>Quinn</title>
    <desc>Created with Sketch.</desc>
    <defs></defs>
    <g id="Page-1" stroke="none" stroke-width="1" fill="none" fill-rule="evenodd">
        <g id="avatar-(1)" transform="translate(-36.000000, -22.000000)" fill-rule="nonzero">
            <g id="Quinn">
                <g id="Group">
                    <g id="Body" transform="translate(36.000000, 176.000000)">
                        <path d="M93.8,0.9 L93.8,1 C82.7,1.3 58.2,2.3 31.7,5.4 C19.2,6.8 -18.4,63.2 13.1,77.3 C38.2,88.6 76.1,97.6 96.9,97.6 L96.9,0.9 C94.9,0.9 93.8,0.9 93.8,0.9 Z" id="Shape" fill="#212121"></path>
                        <path d="M162.1,5.4 C135.6,2.3 111.1,1.3 100,1 L100,0.9 C100,0.9 98.9,0.9 96.9,1 L96.9,97.7 C117.8,97.7 155.6,88.7 180.7,77.4 C212.2,63.2 174.6,6.9 162.1,5.4 Z" id="Shape" fill="#0B0B0C"></path>
                    </g>
                    <g id="Neck" transform="translate(109.000000, 147.000000)">
                        <g id="Mask" transform="translate(1.000000, 10.000000)" fill="#ECBE9D">
                            <path d="M0.9,0 L44.9,0 L44.9,28.5 C44.9,28.5 29.9,43.7 22.9,43.7 C15.2,43.7 0.9,28.5 0.9,28.5 L0.9,0 Z" id="path-3_1_"></path>
                        </g>
                        <path d="M29.3,32 C45.5,32 58.6,16.2 58.6,10.5 C58.6,4.8 45.5,0.3 29.3,0.3 C13.1,0.3 0,4.9 0,10.5 C0,16.1 13.1,32 29.3,32 Z" id="Shape" fill="#D2A88A"></path>
                    </g>
                    <ellipse id="Oval-2" fill="#DDB190" transform="translate(84.245844, 104.845843) rotate(-88.000091) translate(-84.245844, -104.845843) " cx="84.2458438" cy="104.845843" rx="14.5001323" ry="8.00007298"></ellipse>
                    <ellipse id="Oval-2_1_" fill="#D2A88A" transform="translate(180.501835, 103.801038) rotate(-1.999909) translate(-180.501835, -103.801038) " cx="180.501835" cy="103.801038" rx="8.00007298" ry="14.5001323"></ellipse>
                    <g id="Face" transform="translate(84.000000, 39.000000)">
                        <path d="M3.4,42.5 C1.5,49.5 0.4,57.1 0.4,65 C0.4,100.9 22.1,130 48.9,130 L48.9,0 C28,0 10.2,17.7 3.4,42.5 Z" id="Shape" fill="#ECBE9D"></path>
                        <path d="M97.4,65 C97.4,29.1 75.7,0 48.9,0 L48.9,130 C75.7,130 97.4,100.9 97.4,65 Z" id="Shape" fill="#DDB190"></path>
                    </g>
                    <g id="Hair" transform="translate(59.000000, 22.000000)">
                        <path d="M143,115 C136.3,97.3 136.5,91.6 136.7,72.3 C136.8,57.5 127.8,43.6 125.7,36 C121.1,18.7 99,0.7 73.9,0.7 C48.8,0.7 26.8,20 20,38 C13.9,54 7.9,72.9 10.3,96.3 C11.7,109.4 1.8,115.4 0.6,123 C-2.4,142 9.6,139.1 6.2,150.7 C1.8,165.8 8.6,170.8 19.2,178.8 C28.9,186.1 23.2,193.1 17.4,196.1 C44.1,194.8 33.4,174.9 33.4,174.9 C38.4,180.6 35.7,177.8 43.2,178.8 C30.2,171.4 40.5,157.1 46.5,157.1 L51.7,157.1 L51.7,141.2 C51.7,141.2 51.6,140.7 51.3,139.7 C39,131.1 30,115.6 26.7,97 C26.1,97.2 25.4,97.3 24.8,97.3 C20.4,97.1 17,90.5 17.3,82.5 C17.6,74.5 21.4,68.1 25.8,68.3 C26,68.3 26.1,68.3 26.3,68.4 C26.8,65.4 27.4,62.4 28.2,59.6 C35.2,34.7 53,17 73.9,17 C96.9,17 116.2,38.5 121.1,67.3 C125.5,67.3 129.2,73.6 129.5,81.5 C129.8,89.5 126.4,96.1 122,96.3 L121.2,96.3 C118,115.4 108.6,131.3 95.9,140 L95.9,140 L95.9,157 L102.3,156.7 C102.3,156.7 105.4,156.5 104.3,164 C103,173.1 107.5,183 107,178.7 C106.6,175.7 108.6,171.8 109.8,169.8 C108.1,174.6 110.5,188 124,198 C113.5,180.3 149.7,176.8 142,157 C134.3,137.2 151.7,138 143,115 Z" id="Shape" fill="#94734B"></path>
                        <path d="M73.7,28.3 C92.7,28.3 94.8,21.7 101.7,28.6 C109.6,36.5 113.9,48.3 113.9,55.9 C113.9,64.9 120.2,76.9 121.1,67.2 C121.6,46.9 110.5,27.1 99.8,19.3 C89.1,11.5 74,11.6 74,11.6 C74,11.6 62.8,10.1 44.4,22.2 C26,34.3 26,68.3 26,68.3 C26,68.3 30.3,78.4 33.5,55.7 C35.1,44.6 37.3,35.3 46.3,28.7 C54,23 54.7,28.3 73.7,28.3 Z" id="Shape" fill="#94734B"></path>
                        <path d="M41.2,130 C41,129.8 40.8,129.5 40.6,129.3 C40.2,128.8 39.8,128.3 39.4,127.7 C39.2,127.4 39,127.2 38.8,126.9 C38.4,126.3 38,125.8 37.6,125.2 C37.4,125 37.3,124.7 37.1,124.5 C36.6,123.8 36.2,123.1 35.8,122.3 C35.7,122.2 35.7,122.1 35.6,122 C35.1,121.2 34.6,120.3 34.2,119.5 C34,119.1 33.8,118.8 33.7,118.4 C33.4,117.9 33.2,117.3 32.9,116.8 C32.7,116.4 32.5,116 32.3,115.5 C32.1,115 31.9,114.5 31.6,114 C31.4,113.5 31.2,113.1 31,112.6 C30.9,112.4 29.4,108.6 28.6,105.7 C30,113.7 26.5,119 29.4,130.2 C32.2,141.4 36.9,147 35.6,156.9 C34.6,164.9 32.9,168.8 38,173.8 C34,166.3 41.7,157.1 46.5,157.1 L51.9,157.1 L51.9,141.2 L51.9,140 L51.2,139.6 C50.5,139.1 49.8,138.6 49.2,138.1 L49.1,138 C47.6,136.8 46.2,135.6 44.9,134.2 C44.8,134.1 44.7,134 44.7,134 C44.1,133.4 43.6,132.8 43,132.2 C42.8,132 42.7,131.8 42.5,131.6 C42.1,131.1 41.7,130.5 41.2,130 Z" id="Shape" fill="#7F6344"></path>
                        <path d="M95.9,139.9 L95.9,157 C98.8,157.2 103.9,155.8 104.4,159.4 C105.2,151.7 114.8,148.4 113.5,139.8 C113,136.3 118,130.2 117.8,124.6 C117.4,110.4 119,112.9 119.6,103.6 L119.6,103.6 C115.5,119.3 106.9,132.4 95.9,139.9 Z" id="Shape" fill="#7F6344"></path>
                    </g>
                    <path d="M85,90.3 C85,90.3 83.2,110.2 84.4,118 C85.6,125.8 88.2,136.5 90.2,141 C92.4,145.7 98.1,151.9 104.5,158.5 C111.2,165.5 118.8,172.7 131.8,172.7 C143.3,172.7 155.7,162.1 159.6,158.2 C163.6,154.3 171.8,148.7 174.9,139.6 C178,130.5 179.1,128.6 180.5,118.2 C182,107.2 181.3,87.4 181.3,87.4 L176,87.4 C176,87.4 180.9,100.7 175,127.7 C173.2,136.2 166.9,139.8 160.9,147.3 C154.9,154.8 147.3,155.5 133,155.5 C120.1,155.5 112,156.2 104,147.3 C95.4,137.8 92.5,138 90,127.7 C83.2,99.9 90.6,87.4 90.6,87.4 L85,90.3 Z" id="Beard" fill="#94734B"></path>
                </g>
            </g>
        </g>
    </g>
</svg>