<?xml version="1.0" encoding="UTF-8"?>
<svg width="26px" height="25px" viewBox="0 0 26 25" version="1.1" xmlns="http://www.w3.org/2000/svg" xmlns:xlink="http://www.w3.org/1999/xlink">
    <!-- Generator: Sketch 42 (36781) - http://www.bohemiancoding.com/sketch -->
    <title>linkedin-icon_Color</title>
    <desc>Created with Sketch.</desc>
    <defs></defs>
    <g id="Page-1" stroke="none" stroke-width="1" fill="none" fill-rule="evenodd">
        <g id="Desktop-Portrait" transform="translate(-149.000000, -1967.000000)">
            <g id="Group-5" transform="translate(45.000000, 1428.000000)">
                <g id="person-1" transform="translate(0.000000, 7.000000)">
                    <g id="Group-4" transform="translate(10.000000, 532.000000)">
                        <g id="linkedin-icon" transform="translate(94.545763, 0.000000)">
                            <path d="M0,12.5 C0,5.59644029 5.59644029,0 12.5,0 C19.4035597,0 25,5.59644029 25,12.5 C25,19.4035597 19.4035597,25 12.5,25 C5.59644029,25 0,19.4035597 0,12.5 Z" id="back" fill="#0077B5"></path>
                            <path d="M8.83361561,10.353046 L8.83361561,18.864354 L6.00084226,18.864354 L6.00084226,10.353046 L8.83361561,10.353046 Z M9.02018921,7.72015505 C9.02018921,8.53739744 8.4050281,9.19132693 7.41728551,9.19132693 L7.39918255,9.19132693 C6.44815501,9.19132693 5.83333333,8.53739744 5.83333333,7.72015505 C5.83333333,6.88562669 6.46688026,6.25 7.43595418,6.25 C8.4050281,6.25 9.00180339,6.88562669 9.02018921,7.72015505 Z M19.04968,13.9842301 L19.0495669,18.864354 L16.2169066,18.864354 L16.2169066,14.3107994 C16.2169066,13.1670442 15.8069878,12.3865769 14.7815119,12.3865769 C13.9988984,12.3865769 13.5327473,12.9127258 13.3280141,13.4209108 C13.2531131,13.6030349 13.2347273,13.8567884 13.2347273,14.1111634 L13.2347273,18.86458 L10.4016145,18.86458 C10.4016145,18.86458 10.4389519,11.1519291 10.4016145,10.353272 L13.2347273,10.353272 L13.2347273,11.5588273 C13.6107031,10.9792953 14.2840766,10.153184 15.7880929,10.153184 C17.6521883,10.153184 19.04968,11.3699244 19.04968,13.9842301 Z" id="Shape" fill="#FFFFFF"></path>
                        </g>
                    </g>
                </g>
            </g>
        </g>
    </g>
</svg>